<svg width="106" height="40" fill="none" xmlns="http://www.w3.org/2000/svg"><path d="M62.335 13.368c.222 0 .402.076.542.227.152.14.228.321.228.543a.74.74 0 01-.227.543.705.705 0 01-.543.227h-3.763v10.5a.761.761 0 01-.227.56c-.14.14-.32.21-.542.21a.774.774 0 01-.543-.21.761.761 0 01-.227-.56v-10.5H53.27a.74.74 0 01-.543-.227.74.74 0 01-.227-.543c0-.222.076-.402.227-.543a.74.74 0 01.543-.227h9.065zm6.573 0c.886 0 1.72.17 2.502.508a6.482 6.482 0 012.065 1.382 6.343 6.343 0 011.4 2.065 6.24 6.24 0 01.508 2.503 6.259 6.259 0 01-.665 2.87 6.498 6.498 0 01-1.803 2.204l-.035.036a7.18 7.18 0 01-1.837.997 6.404 6.404 0 01-2.135.35 6.24 6.24 0 01-2.503-.508 6.753 6.753 0 01-2.065-1.382 6.536 6.536 0 01-1.382-2.047 6.276 6.276 0 01-.508-2.52c0-.98.198-1.885.595-2.713a6.46 6.46 0 011.628-2.152l.07-.07c.011 0 .029-.012.052-.036a6.334 6.334 0 011.89-1.085 6.16 6.16 0 012.223-.402zm0 11.375a4.91 4.91 0 001.26-.157 5.586 5.586 0 001.155-.473L65.18 16.64a4.916 4.916 0 00-.875 1.47 4.664 4.664 0 00-.315 1.716c0 .676.128 1.312.385 1.907s.607 1.12 1.05 1.575c.455.443.98.793 1.575 1.05s1.23.385 1.908.385zm3.622-1.592c.408-.444.724-.945.945-1.506.234-.571.35-1.178.35-1.82a4.813 4.813 0 00-1.453-3.465 4.813 4.813 0 00-3.464-1.452c-.467 0-.916.064-1.348.193a4.462 4.462 0 00-1.207.524l6.177 7.526zm9.821-2.521a.762.762 0 01-.595-.28l-4.498-5.775a.714.714 0 01-.157-.542.722.722 0 01.28-.508.658.658 0 01.543-.14c.21.024.379.117.507.28l3.92 5.006 3.832-4.918a.709.709 0 01.49-.28c.21-.023.397.03.56.157a.721.721 0 01.28.508.713.713 0 01-.157.543l-4.41 5.67a.73.73 0 01-.595.28zm4.918 5.636a1.572 1.572 0 01-.56-.105 3.865 3.865 0 01-.42-.228 2.376 2.376 0 01-.42-.42L82.35 20.98l-3.832 4.936a.721.721 0 01-.508.28.714.714 0 01-.542-.158.709.709 0 01-.28-.49.741.741 0 01.157-.56l4.41-5.67a.682.682 0 01.578-.28c.256 0 .46.093.612.28l4.095 5.25c.058.082.11.134.157.157l.106.053c.198 0 .361.07.49.21.14.128.215.292.227.49a.657.657 0 01-.175.542.744.744 0 01-.525.245h-.052zm4.465-.001a.761.761 0 01-.56-.227.761.761 0 01-.227-.56V14.103c0-.21.076-.39.227-.543a.761.761 0 01.56-.227c.21 0 .391.076.543.227a.74.74 0 01.227.543v11.375a.761.761 0 01-.227.56.74.74 0 01-.543.227zm13.204-.035a.685.685 0 01-.595-.297l-7.298-9.59v9.135a.74.74 0 01-.227.542.712.712 0 01-.525.21.75.75 0 01-.753-.752V14.12c0-.163.047-.309.14-.437a.697.697 0 01.385-.262.678.678 0 01.455-.018.79.79 0 01.385.262l7.28 9.608v-9.152c0-.199.07-.374.21-.526a.742.742 0 01.543-.227c.21 0 .385.076.525.227a.723.723 0 01.227.525v11.358c0 .163-.047.31-.14.438a.799.799 0 01-.367.28 1.492 1.492 0 01-.245.034z" fill="#1F2041"/><path d="M20 27.059a1.18 1.18 0 01-1.176-1.177c0-4.53-3.706-8.235-8.235-8.235a1.18 1.18 0 01-1.177-1.177c0-.647.53-1.176 1.177-1.176a10.582 10.582 0 0110.588 10.588A1.18 1.18 0 0120 27.06z" fill="url(#paint0_linear)"/><path d="M30.588 16.47a1.18 1.18 0 01-1.176 1.177 8.21 8.21 0 00-6.765 3.559 12.044 12.044 0 00-1.176-2.294 10.49 10.49 0 017.94-3.618c.648 0 1.177.53 1.177 1.176z" fill="url(#paint1_linear)"/><path d="M20 40C8.97 40 0 31.03 0 20S8.97 0 20 0s20 8.97 20 20-8.97 20-20 20zm0-37.647C10.265 2.353 2.353 10.265 2.353 20S10.265 37.647 20 37.647 37.647 29.735 37.647 20 29.735 2.353 20 2.353z" fill="url(#paint2_linear)"/><defs><linearGradient id="paint0_linear" x1="15.294" y1="15.294" x2="15.294" y2="27.059" gradientUnits="userSpaceOnUse"><stop stop-color="#BC9CFF"/><stop offset="1" stop-color="#8BA4F9"/></linearGradient><linearGradient id="paint1_linear" x1="26.029" y1="15.294" x2="26.029" y2="21.206" gradientUnits="userSpaceOnUse"><stop stop-color="#6FCF97"/><stop offset="1" stop-color="#66D2EA"/></linearGradient><linearGradient id="paint2_linear" x1="20" y1="0" x2="20" y2="40" gradientUnits="userSpaceOnUse"><stop stop-color="#BC9CFF"/><stop offset="1" stop-color="#8BA4F9"/></linearGradient></defs></svg>