<svg width="24" height="20" fill="none" xmlns="http://www.w3.org/2000/svg"><path d="M21.516 5.125c.03.125.047.328.047.61 0 1.656-.313 3.312-.938 4.968a15.729 15.729 0 01-2.672 4.5c-1.125 1.344-2.594 2.438-4.406 3.281-1.813.844-3.813 1.266-6 1.266-2.75 0-5.266-.734-7.547-2.203.344.031.734.047 1.172.047 2.281 0 4.328-.703 6.14-2.11-1.093 0-2.062-.312-2.906-.937a5.085 5.085 0 01-1.687-2.438c.312.032.61.047.89.047.438 0 .875-.047 1.313-.14a4.78 4.78 0 01-2.016-.938A5.211 5.211 0 011.5 9.391a4.86 4.86 0 01-.516-2.204v-.093a4.634 4.634 0 002.204.656C1.718 6.75.983 5.375.983 3.625c0-.875.235-1.703.704-2.484A13.646 13.646 0 006.14 4.797a13.794 13.794 0 005.671 1.5 6.832 6.832 0 01-.093-1.125c0-1.344.469-2.5 1.406-3.469C14.094.734 15.25.25 16.594.25c1.437 0 2.64.516 3.61 1.547a10.015 10.015 0 003.14-1.172c-.375 1.156-1.094 2.063-2.157 2.719.938-.125 1.875-.39 2.813-.797-.688 1-1.516 1.86-2.484 2.578z" fill="url(#paint0_linear)"/><defs><linearGradient id="paint0_linear" x1="12" y1="0" x2="12" y2="24" gradientUnits="userSpaceOnUse"><stop stop-color="#BC9CFF"/><stop offset="1" stop-color="#8BA4F9"/></linearGradient></defs></svg>