<svg width="10" height="8" fill="none" xmlns="http://www.w3.org/2000/svg"><path d="M5.04 6.734c.624-.56 1.086-.983 1.386-1.27.3-.286.625-.624.976-1.015.352-.39.593-.735.723-1.035.143-.3.215-.592.215-.879A1.37 1.37 0 007.91 1.5c-.273-.273-.618-.41-1.035-.41a1.68 1.68 0 00-.918.273 1.415 1.415 0 00-.566.703h-.782c-.104-.286-.3-.52-.586-.703a1.586 1.586 0 00-.898-.273 1.47 1.47 0 00-1.055.41c-.273.273-.41.618-.41 1.035 0 .287.065.58.195.88.144.299.391.644.743 1.034.351.39.677.73.976 1.016.3.286.762.71 1.387 1.27L5 6.772l.04-.039zM6.874.25c.651 0 1.191.221 1.621.664.443.443.664.983.664 1.621a3 3 0 01-.215 1.113c-.143.352-.41.75-.8 1.192-.378.443-.723.814-1.036 1.113-.312.3-.813.762-1.504 1.387L5 7.887l-.605-.528A55.478 55.478 0 012.44 5.543a8.39 8.39 0 01-1.093-1.426C1.009 3.57.84 3.043.84 2.535c0-.638.215-1.178.644-1.62C1.927.47 2.474.25 3.125.25c.755 0 1.38.293 1.875.879C5.495.543 6.12.25 6.875.25z" fill="#1F2041" fill-opacity=".25"/></svg>